<?xml version="1.0" encoding="UTF-8"?>
<svg xmlns="http://www.w3.org/2000/svg" xmlns:xlink="http://www.w3.org/1999/xlink" width="256px" height="256px" viewBox="0 0 256 256" version="1.1">
<g id="surface1">
<path style=" stroke:none;fill-rule:nonzero;fill:rgb(0%,0%,0%);fill-opacity:1;" d="M 248.03125 31.039062 C 251.144531 34.164062 251.144531 39.214844 248.03125 42.335938 L 231.34375 59.039062 L 199.34375 27.039062 L 216.03125 10.335938 C 219.15625 7.214844 224.21875 7.214844 227.34375 10.335938 L 248.03125 31.023438 Z M 220.03125 70.335938 L 188.03125 38.335938 L 79.023438 147.359375 L 64.207031 189.121094 L 107.886719 181.296875 L 220.03125 70.351562 Z M 220.03125 70.335938 "/>
<path style=" stroke:none;fill-rule:evenodd;fill:rgb(0%,0%,0%);fill-opacity:1;" d="M 16 216 C 16 229.253906 26.746094 240 40 240 L 216 240 C 229.253906 240 240 229.253906 240 216 L 240 120 C 240 115.582031 236.417969 112 232 112 C 227.582031 112 224 115.582031 224 120 L 224 216 C 224 220.417969 220.417969 224 216 224 L 40 224 C 35.582031 224 32 220.417969 32 216 L 32 40 C 32 35.582031 35.582031 32 40 32 L 144 32 C 148.417969 32 152 28.417969 152 24 C 152 19.582031 148.417969 16 144 16 L 40 16 C 26.746094 16 16 26.746094 16 40 Z M 16 216 "/>
</g>
</svg>
