<?xml version="1.0" encoding="UTF-8"?>
<svg xmlns="http://www.w3.org/2000/svg" xmlns:xlink="http://www.w3.org/1999/xlink" width="256px" height="256px" viewBox="0 0 256 256" version="1.1">
<g id="surface1">
<path style=" stroke:none;fill-rule:nonzero;fill:rgb(0%,0%,0%);fill-opacity:1;" d="M 139.3125 24 C 133.0625 17.753906 122.9375 17.753906 116.6875 24 L 10.335938 130.335938 C 7.207031 133.464844 7.207031 138.535156 10.335938 141.664062 C 13.464844 144.792969 18.535156 144.792969 21.664062 141.664062 L 32 131.3125 L 32 216 C 32 229.253906 42.746094 240 56 240 L 200 240 C 213.253906 240 224 229.253906 224 216 L 224 131.3125 L 234.335938 141.664062 C 237.464844 144.792969 242.535156 144.792969 245.664062 141.664062 C 248.792969 138.535156 248.792969 133.464844 245.664062 130.335938 L 208 92.6875 L 208 40 C 208 35.582031 204.417969 32 200 32 L 184 32 C 179.582031 32 176 35.582031 176 40 L 176 60.6875 Z M 208 115.3125 L 208 216 C 208 220.417969 204.417969 224 200 224 L 56 224 C 51.582031 224 48 220.417969 48 216 L 48 115.3125 L 128 35.3125 Z M 208 115.3125 "/>
</g>
</svg>
