<?xml version="1.0" encoding="UTF-8"?>
<svg xmlns="http://www.w3.org/2000/svg" xmlns:xlink="http://www.w3.org/1999/xlink" width="256px" height="256px" viewBox="0 0 256 256" version="1.1">
<g id="surface1">
<path style=" stroke:none;fill-rule:nonzero;fill:rgb(0%,0%,0%);fill-opacity:1;" d="M 8 48 L 8.640625 61.921875 C 4.429688 68.0625 2.496094 75.480469 3.167969 82.894531 L 13.359375 194.894531 C 14.855469 211.375 28.671875 223.992188 45.214844 224 L 144 224 L 144 208 L 45.214844 208 C 36.941406 207.992188 30.039062 201.679688 29.296875 193.441406 L 19.105469 81.441406 C 18.699219 76.964844 20.195312 72.523438 23.226562 69.207031 C 26.257812 65.890625 30.546875 64 35.039062 64 L 220.960938 64 C 225.453125 64 229.742188 65.890625 232.773438 69.207031 C 235.804688 72.523438 237.300781 76.964844 236.894531 81.441406 L 232.640625 128 L 248.71875 128 L 252.816406 82.894531 C 253.628906 73.945312 250.640625 65.0625 244.582031 58.425781 C 238.519531 51.789062 229.949219 48.003906 220.960938 48 L 157.246094 48 C 148.761719 48 140.625 44.625 134.625 38.625 L 121.375 25.375 C 115.375 19.375 107.238281 16 98.753906 16 L 40 16 C 22.328125 16 8 30.328125 8 48 M 98.753906 32 C 102.996094 32 107.0625 33.6875 110.0625 36.6875 L 121.375 48 L 35.039062 48 C 31.179688 48.019531 27.535156 48.660156 24.113281 49.921875 L 24 47.679688 C 24.175781 38.96875 31.285156 32 40 32 Z M 98.753906 32 "/>
<path style=" stroke:none;fill-rule:nonzero;fill:rgb(0%,0%,0%);fill-opacity:1;" d="M 216 144 C 220.417969 144 224 147.582031 224 152 L 224 176 L 248 176 C 252.417969 176 256 179.582031 256 184 C 256 188.417969 252.417969 192 248 192 L 224 192 L 224 216 C 224 220.417969 220.417969 224 216 224 C 211.582031 224 208 220.417969 208 216 L 208 192 L 184 192 C 179.582031 192 176 188.417969 176 184 C 176 179.582031 179.582031 176 184 176 L 208 176 L 208 152 C 208 147.582031 211.582031 144 216 144 "/>
</g>
</svg>
