<?xml version="1.0" encoding="UTF-8"?>
<svg xmlns="http://www.w3.org/2000/svg" xmlns:xlink="http://www.w3.org/1999/xlink" width="256px" height="256px" viewBox="0 0 256 256" version="1.1">
<g id="surface1">
<path style=" stroke:none;fill-rule:nonzero;fill:rgb(0%,0%,0%);fill-opacity:1;" d="M 128 240 C 66.144531 240 16 189.855469 16 128 C 16 66.144531 66.144531 16 128 16 C 189.855469 16 240 66.144531 240 128 C 240 189.855469 189.855469 240 128 240 M 128 256 C 198.691406 256 256 198.691406 256 128 C 256 57.308594 198.691406 0 128 0 C 57.308594 0 0 57.308594 0 128 C 0 198.691406 57.308594 256 128 256 "/>
<path style=" stroke:none;fill-rule:nonzero;fill:rgb(0%,0%,0%);fill-opacity:1;" d="M 128 64 C 132.417969 64 136 67.582031 136 72 L 136 120 L 184 120 C 188.417969 120 192 123.582031 192 128 C 192 132.417969 188.417969 136 184 136 L 136 136 L 136 184 C 136 188.417969 132.417969 192 128 192 C 123.582031 192 120 188.417969 120 184 L 120 136 L 72 136 C 67.582031 136 64 132.417969 64 128 C 64 123.582031 67.582031 120 72 120 L 120 120 L 120 72 C 120 67.582031 123.582031 64 128 64 "/>
</g>
</svg>
