<?xml version="1.0" encoding="UTF-8"?>
<svg xmlns="http://www.w3.org/2000/svg" xmlns:xlink="http://www.w3.org/1999/xlink" width="256px" height="256px" viewBox="0 0 256 256" version="1.1">
<g id="surface1">
<path style=" stroke:none;fill-rule:nonzero;fill:rgb(0%,0%,0%);fill-opacity:1;" d="M 16 56 C 16 42.746094 26.746094 32 40 32 L 84.222656 32 C 99.550781 32 112.382812 40.960938 121.199219 50.945312 C 127.761719 58.367188 135.679688 64 144 64 L 216 64 C 229.253906 64 240 74.746094 240 88 L 240 98.238281 C 249.121094 102.480469 255.039062 112.257812 253.695312 122.976562 L 243.457031 204.960938 C 240.953125 224.992188 223.914062 240.019531 203.726562 240 L 52.257812 240 C 32.082031 240.003906 15.0625 224.980469 12.558594 204.960938 L 2.320312 122.976562 C 1.027344 112.636719 6.554688 102.640625 16 98.238281 Z M 32 96 L 224 96 L 224 88 C 224 83.582031 220.417969 80 216 80 L 144 80 C 128.574219 80 116.640625 69.9375 109.214844 61.535156 C 101.984375 53.34375 93.121094 48 84.222656 48 L 40 48 C 35.582031 48 32 51.582031 32 56 Z M 26.128906 112 C 23.832031 112 21.648438 112.984375 20.132812 114.707031 C 18.613281 116.425781 17.90625 118.714844 18.191406 120.992188 L 28.433594 202.976562 C 29.933594 214.988281 40.148438 224.003906 52.257812 224 L 203.742188 224 C 215.851562 224.003906 226.066406 214.988281 227.566406 202.976562 L 237.808594 120.992188 C 238.09375 118.714844 237.386719 116.425781 235.867188 114.707031 C 234.351562 112.984375 232.167969 112 229.871094 112 Z M 26.128906 112 "/>
</g>
</svg>
