<?xml version="1.0" encoding="UTF-8"?>
<svg xmlns="http://www.w3.org/2000/svg" xmlns:xlink="http://www.w3.org/1999/xlink" width="512px" height="512px" viewBox="0 0 512 512" version="1.1">
<g id="surface1">
<path style=" stroke:none;fill-rule:nonzero;fill:rgb(0%,0%,0%);fill-opacity:1;" d="M 219.328125 228.671875 C 213.070312 222.414062 202.929688 222.414062 196.671875 228.671875 C 190.414062 234.929688 190.414062 245.070312 196.671875 251.328125 L 233.375 288 L 196.671875 324.671875 C 190.414062 330.929688 190.414062 341.070312 196.671875 347.328125 C 202.929688 353.585938 213.070312 353.585938 219.328125 347.328125 L 256 310.625 L 292.671875 347.328125 C 298.929688 353.585938 309.070312 353.585938 315.328125 347.328125 C 321.585938 341.070312 321.585938 330.929688 315.328125 324.671875 L 278.625 288 L 315.328125 251.328125 C 321.585938 245.070312 321.585938 234.929688 315.328125 228.671875 C 309.070312 222.414062 298.929688 222.414062 292.671875 228.671875 L 256 265.375 Z M 219.328125 228.671875 "/>
<path style=" stroke:none;fill-rule:nonzero;fill:rgb(0%,0%,0%);fill-opacity:1;" d="M 448 448 L 448 144 L 304 0 L 128 0 C 92.652344 0 64 28.652344 64 64 L 64 448 C 64 483.347656 92.652344 512 128 512 L 384 512 C 419.347656 512 448 483.347656 448 448 M 304 96 C 304 122.507812 325.492188 144 352 144 L 416 144 L 416 448 C 416 465.671875 401.671875 480 384 480 L 128 480 C 110.328125 480 96 465.671875 96 448 L 96 64 C 96 46.328125 110.328125 32 128 32 L 304 32 Z M 304 96 "/>
</g>
</svg>
