<?xml version="1.0" encoding="UTF-8"?>
<svg xmlns="http://www.w3.org/2000/svg" xmlns:xlink="http://www.w3.org/1999/xlink" width="256px" height="256px" viewBox="0 0 256 256" version="1.1">
<g id="surface1">
<path style=" stroke:none;fill-rule:evenodd;fill:rgb(0%,0%,0%);fill-opacity:1;" d="M 16 128 C 16 189.855469 66.144531 240 128 240 C 189.855469 240 240 189.855469 240 128 C 240 66.144531 189.855469 16 128 16 C 66.144531 16 16 66.144531 16 128 M 256 128 C 256 198.691406 198.691406 256 128 256 C 57.308594 256 0 198.691406 0 128 C 0 57.308594 57.308594 0 128 0 C 198.691406 0 256 57.308594 256 128 M 184 120 C 188.417969 120 192 123.582031 192 128 C 192 132.417969 188.417969 136 184 136 L 91.3125 136 L 125.664062 170.335938 C 128.792969 173.464844 128.792969 178.535156 125.664062 181.664062 C 122.535156 184.792969 117.464844 184.792969 114.335938 181.664062 L 66.335938 133.664062 C 64.832031 132.164062 63.984375 130.125 63.984375 128 C 63.984375 125.875 64.832031 123.835938 66.335938 122.335938 L 114.335938 74.335938 C 117.464844 71.207031 122.535156 71.207031 125.664062 74.335938 C 128.792969 77.464844 128.792969 82.535156 125.664062 85.664062 L 91.3125 120 Z M 184 120 "/>
</g>
</svg>
